<svg width="39" height="38" viewBox="0 0 39 38" fill="none" xmlns="http://www.w3.org/2000/svg">
<path d="M19.4799 0.00121748C8.71845 0.00121748 0 8.72697 0 19.4811C0 28.0924 5.58098 35.3912 13.3157 37.9662C14.2933 38.1501 14.6464 37.5474 14.6464 37.0263C14.6464 36.5637 14.6355 35.3401 14.6282 33.716C9.20667 34.8896 8.06466 31.0971 8.06466 31.0971C7.17711 28.8521 5.89631 28.2494 5.89631 28.2494C4.13338 27.0453 6.03632 27.0709 6.03632 27.0709C7.98917 27.2036 9.01674 29.0737 9.01674 29.0737C10.7541 32.0541 13.575 31.1921 14.6915 30.6905C14.8619 29.4353 15.3696 28.5721 15.9223 28.0912C11.5978 27.6029 7.05049 25.9289 7.05049 18.4645C7.05049 16.3326 7.80533 14.5965 9.05326 13.2329C8.83777 12.7447 8.17789 10.7602 9.22493 8.07683C9.22493 8.07683 10.8551 7.55696 14.5819 10.0747C16.1415 9.64253 17.7973 9.42703 19.4519 9.41607C21.1076 9.42703 22.7622 9.64374 24.3218 10.0747C28.0266 7.55696 29.6556 8.07683 29.6556 8.07683C30.7015 10.7602 30.0416 12.7435 29.8517 13.2329C31.0874 14.5965 31.8423 16.3339 31.8423 18.4645C31.8423 25.9459 27.2888 27.5956 22.9594 28.0717C23.6364 28.6549 24.2707 29.8541 24.2707 31.6742C24.2707 34.2797 24.2463 36.3786 24.2463 37.0129C24.2463 37.5194 24.5872 38.1282 25.5904 37.9321C33.3824 35.3839 38.9573 28.079 38.9573 19.4799C38.9573 8.72576 30.2388 0 19.4774 0L19.4799 0.00121748Z" fill="#7458D9"/>
</svg>
