<svg width="38" height="38" viewBox="0 0 38 38" fill="none" xmlns="http://www.w3.org/2000/svg">
<path fill-rule="evenodd" clip-rule="evenodd" d="M11.1667 0.114C13.1934 0.0211072 13.8394 0 19 0C24.1616 0 24.8066 0.0221609 26.8321 0.114C28.8556 0.205839 30.2375 0.527785 31.446 0.9975C32.7137 1.47476 33.862 2.22255 34.8111 3.18884C35.7775 4.13785 36.5254 5.28625 37.0025 6.55395C37.4721 7.76255 37.7931 9.14428 37.886 11.1667C37.9789 13.1934 38 13.8394 38 19C38 24.1606 37.9779 24.8066 37.886 26.8334C37.7941 28.8556 37.4721 30.2375 37.0025 31.446C36.517 32.6949 35.8666 33.7556 34.8111 34.8111C33.8621 35.7775 32.7137 36.5254 31.446 37.0025C30.2375 37.4721 28.8556 37.7931 26.8334 37.886C24.8066 37.9789 24.1606 38 19 38C13.8394 38 13.1934 37.9779 11.1667 37.886C9.14428 37.7941 7.76255 37.4721 6.55395 37.0025C5.30521 36.517 4.24439 35.8666 3.18884 34.8111C2.22238 33.8621 1.47454 32.7137 0.9975 31.446C0.527785 30.2375 0.206893 28.8556 0.114 26.8334C0.0211072 24.8066 0 24.1616 0 19C0 13.8383 0.0221609 13.1934 0.114 11.1678C0.205839 9.14428 0.527785 7.76255 0.9975 6.55395C1.47476 5.28633 2.22255 4.13799 3.18884 3.18884C4.13784 2.22238 5.28623 1.47454 6.55395 0.9975C7.76255 0.527785 9.14428 0.206893 11.1667 0.114ZM26.6781 3.534C24.6746 3.44321 24.073 3.42316 19 3.42316C13.927 3.42316 13.3253 3.44321 11.3219 3.534C9.46939 3.61845 8.46345 3.92771 7.79421 4.18845C6.90755 4.53255 6.27421 4.94421 5.60921 5.60921C4.94528 6.27421 4.53255 6.90755 4.18845 7.79421C3.92771 8.46345 3.61845 9.46939 3.534 11.3219C3.44321 13.3253 3.42316 13.927 3.42316 19C3.42316 24.073 3.44321 24.6746 3.534 26.6781C3.61845 28.5306 3.92771 29.5365 4.18845 30.2059C4.49283 31.0311 4.97833 31.7777 5.60921 32.3909C6.22222 33.0216 6.96887 33.5072 7.79421 33.8115C8.46345 34.0723 9.46939 34.3815 11.3219 34.466C13.3253 34.5569 13.9259 34.5769 19 34.5769C24.074 34.5769 24.6746 34.5569 26.6781 34.466C28.5306 34.3815 29.5365 34.0723 30.2059 33.8115C31.0925 33.4675 31.7258 33.0559 32.3909 32.3909C33.0216 31.7778 33.5072 31.0311 33.8115 30.2059C34.0723 29.5365 34.3815 28.5306 34.466 26.6781C34.5569 24.6746 34.5769 24.073 34.5769 19C34.5769 13.927 34.5569 13.3253 34.466 11.3219C34.3815 9.46939 34.0723 8.46345 33.8115 7.79421C33.4675 6.90755 33.0559 6.27421 32.3909 5.60921C31.7258 4.94528 31.0925 4.53255 30.2059 4.18845C29.5365 3.92771 28.5306 3.61845 26.6781 3.534ZM16.574 24.857C17.3432 25.1757 18.1675 25.3396 19 25.3396C20.6815 25.3396 22.2939 24.6717 23.4828 23.4828C24.6718 22.2939 25.3398 20.6813 25.3398 19C25.3398 17.3187 24.6718 15.7061 23.4828 14.5172C22.2939 13.3283 20.6815 12.6603 19 12.6603C18.1675 12.6603 17.3432 12.8243 16.574 13.1429C15.8047 13.4615 15.1059 13.9285 14.5172 14.5172C13.9285 15.1059 13.4616 15.8047 13.143 16.5739C12.8244 17.343 12.6604 18.1675 12.6604 19C12.6604 19.8325 12.8244 20.657 13.143 21.4261C13.4616 22.1953 13.9285 22.8941 14.5172 23.4828C15.1059 24.0714 15.8047 24.5385 16.574 24.857ZM12.0944 12.0944C13.9259 10.2629 16.41 9.23398 19 9.23398C21.5902 9.23398 24.0742 10.2629 25.9056 12.0944C27.7371 13.9259 28.766 16.41 28.766 19C28.766 21.59 27.7371 24.074 25.9056 25.9056C24.0742 27.7371 21.5902 28.766 19 28.766C16.41 28.766 13.9259 27.7371 12.0944 25.9056C10.263 24.074 9.23405 21.59 9.23405 19C9.23405 16.41 10.263 13.9259 12.0944 12.0944ZM30.9315 10.689C31.3643 10.2561 31.6075 9.66891 31.6075 9.05666C31.6075 8.44439 31.3643 7.85722 30.9315 7.4243C30.4984 6.99138 29.9114 6.74816 29.299 6.74816C28.6869 6.74816 28.0996 6.99138 27.6668 7.4243C27.2337 7.85722 26.9905 8.44439 26.9905 9.05666C26.9905 9.66891 27.2337 10.2561 27.6668 10.689C28.0996 11.1219 28.6869 11.3652 29.299 11.3652C29.9114 11.3652 30.4984 11.1219 30.9315 10.689Z" fill="#7458D9"/>
</svg>
