<svg width="39" height="38" viewBox="0 0 39 38" fill="none" xmlns="http://www.w3.org/2000/svg">
<path d="M33.3317 32.3823H27.7045V23.5648C27.7045 21.4621 27.6618 18.7562 24.7722 18.7562C21.8383 18.7562 21.3902 21.0441 21.3902 23.4096V32.3823H15.763V14.25H21.1685V16.7216H21.2414C21.9966 15.2966 23.8333 13.7924 26.5772 13.7924C32.2788 13.7924 33.3333 17.5449 33.3333 22.4295L33.3317 32.3823ZM9.40753 11.7689C8.97825 11.7691 8.55314 11.6847 8.15654 11.5204C7.75994 11.3561 7.39963 11.1152 7.09623 10.8116C6.79284 10.5079 6.55231 10.1473 6.38842 9.75056C6.22452 9.3538 6.14048 8.92861 6.14111 8.49933C6.14142 7.85298 6.33339 7.22124 6.69275 6.684C7.0521 6.14675 7.56269 5.72813 8.15996 5.48107C8.75723 5.23402 9.41435 5.16962 10.0482 5.29602C10.6821 5.42242 11.2642 5.73395 11.7211 6.19121C12.1779 6.64847 12.4888 7.23092 12.6146 7.86492C12.7404 8.49891 12.6754 9.15596 12.4277 9.75299C12.1801 10.35 11.761 10.8602 11.2234 11.219C10.6858 11.5779 10.0539 11.7692 9.40753 11.7689ZM12.229 32.3823H6.58603V14.25H12.229V32.3823ZM36.1469 0H3.76136C2.21128 0 0.957275 1.2255 0.957275 2.73758V35.2624C0.957275 36.7761 2.21128 38 3.76136 38H36.1421C37.6906 38 38.9573 36.7761 38.9573 35.2624V2.73758C38.9573 1.2255 37.6906 0 36.1421 0H36.1469Z" fill="#7458D9"/>
</svg>
