<svg width="1440" height="200" viewBox="0 0 1440 200" fill="none" xmlns="http://www.w3.org/2000/svg">
<rect width="1440" height="200" fill="#7458D9"/>
<path d="M621.051 89.5H608.161V53.1364H621.158C624.815 53.1364 627.964 53.8643 630.604 55.3203C633.243 56.7644 635.273 58.8419 636.694 61.5526C638.126 64.2633 638.842 67.5066 638.842 71.2827C638.842 75.0705 638.126 78.3258 636.694 81.0483C635.273 83.7708 633.232 85.8601 630.568 87.3161C627.917 88.772 624.744 89.5 621.051 89.5ZM615.849 82.9126H620.732C623.004 82.9126 624.916 82.5102 626.467 81.7053C628.029 80.8885 629.201 79.6278 629.982 77.9233C630.775 76.2069 631.172 73.9934 631.172 71.2827C631.172 68.5956 630.775 66.3999 629.982 64.6953C629.201 62.9908 628.035 61.736 626.484 60.9311C624.934 60.1262 623.022 59.7237 620.749 59.7237H615.849V82.9126ZM644.395 89.5V62.2273H651.959V89.5H644.395ZM648.195 58.7116C647.071 58.7116 646.106 58.3388 645.301 57.593C644.508 56.8355 644.111 55.9299 644.111 54.8764C644.111 53.8348 644.508 52.9411 645.301 52.1953C646.106 51.4377 647.071 51.0589 648.195 51.0589C649.32 51.0589 650.278 51.4377 651.072 52.1953C651.876 52.9411 652.279 53.8348 652.279 54.8764C652.279 55.9299 651.876 56.8355 651.072 57.593C650.278 58.3388 649.32 58.7116 648.195 58.7116ZM665.582 73.733V89.5H658.018V62.2273H665.227V67.0391H665.547C666.151 65.4529 667.163 64.1982 668.583 63.2749C670.004 62.3397 671.726 61.8722 673.75 61.8722C675.644 61.8722 677.295 62.2865 678.704 63.1151C680.112 63.9437 681.207 65.1274 681.989 66.6662C682.77 68.1932 683.161 70.0161 683.161 72.1349V89.5H675.597V73.4844C675.608 71.8153 675.182 70.5133 674.318 69.5781C673.454 68.6312 672.264 68.1577 670.749 68.1577C669.731 68.1577 668.832 68.3767 668.05 68.8146C667.281 69.2526 666.677 69.8918 666.239 70.7322C665.813 71.5608 665.594 72.5611 665.582 73.733ZM696.686 73.733V89.5H689.122V62.2273H696.331V67.0391H696.65C697.254 65.4529 698.266 64.1982 699.687 63.2749C701.107 62.3397 702.829 61.8722 704.854 61.8722C706.747 61.8722 708.399 62.2865 709.807 63.1151C711.216 63.9437 712.311 65.1274 713.092 66.6662C713.873 68.1932 714.264 70.0161 714.264 72.1349V89.5H706.7V73.4844C706.712 71.8153 706.286 70.5133 705.422 69.5781C704.558 68.6312 703.368 68.1577 701.853 68.1577C700.835 68.1577 699.935 68.3767 699.154 68.8146C698.385 69.2526 697.781 69.8918 697.343 70.7322C696.917 71.5608 696.698 72.5611 696.686 73.733ZM716.688 59.4751V53.1364H746.553V59.4751H735.42V89.5H727.82V59.4751H716.688ZM759.803 90.0327C756.998 90.0327 754.583 89.4645 752.559 88.3281C750.546 87.1799 748.996 85.5582 747.907 83.4631C746.818 81.3561 746.273 78.8643 746.273 75.9879C746.273 73.1825 746.818 70.7204 747.907 68.6016C748.996 66.4827 750.529 64.8314 752.505 63.6477C754.494 62.464 756.826 61.8722 759.501 61.8722C761.3 61.8722 762.975 62.1622 764.526 62.7422C766.088 63.3104 767.45 64.1686 768.61 65.3168C769.782 66.465 770.693 67.9091 771.344 69.6491C771.995 71.3774 772.321 73.4015 772.321 75.7216V77.799H749.292V73.1115H765.201C765.201 72.0225 764.964 71.0578 764.49 70.2173C764.017 69.3769 763.36 68.7199 762.52 68.2464C761.691 67.7611 760.726 67.5185 759.625 67.5185C758.477 67.5185 757.459 67.7848 756.571 68.3175C755.695 68.8383 755.009 69.5426 754.512 70.4304C754.015 71.3063 753.76 72.2829 753.748 73.3601V77.8168C753.748 79.1662 753.997 80.3321 754.494 81.3146C755.003 82.2971 755.719 83.0547 756.642 83.5874C757.566 84.12 758.661 84.3864 759.927 84.3864C760.768 84.3864 761.537 84.268 762.235 84.0312C762.934 83.7945 763.532 83.4394 764.029 82.9659C764.526 82.4924 764.905 81.9124 765.165 81.2259L772.161 81.6875C771.806 83.3684 771.078 84.8362 769.977 86.0909C768.888 87.3338 767.479 88.3045 765.751 89.0028C764.035 89.6894 762.052 90.0327 759.803 90.0327ZM789.579 90.0327C786.786 90.0327 784.383 89.4408 782.37 88.2571C780.37 87.0616 778.831 85.4044 777.754 83.2855C776.689 81.1667 776.156 78.7282 776.156 75.9702C776.156 73.1766 776.694 70.7263 777.772 68.6193C778.861 66.5005 780.405 64.8492 782.406 63.6655C784.406 62.4699 786.786 61.8722 789.544 61.8722C791.923 61.8722 794.006 62.3042 795.794 63.1683C797.581 64.0324 798.996 65.2457 800.037 66.8082C801.079 68.3707 801.653 70.2055 801.76 72.3125H794.622C794.421 70.9512 793.888 69.8563 793.024 69.0277C792.172 68.1873 791.053 67.767 789.668 67.767C788.496 67.767 787.472 68.0866 786.596 68.7259C785.732 69.3532 785.057 70.2706 784.572 71.478C784.087 72.6854 783.844 74.1473 783.844 75.8636C783.844 77.6037 784.081 79.0833 784.554 80.3026C785.04 81.5218 785.72 82.451 786.596 83.0902C787.472 83.7294 788.496 84.049 789.668 84.049C790.532 84.049 791.307 83.8714 791.994 83.5163C792.692 83.1612 793.266 82.6463 793.716 81.9716C794.178 81.285 794.48 80.4624 794.622 79.5036H801.76C801.641 81.5869 801.073 83.4216 800.055 85.0078C799.049 86.5821 797.658 87.8132 795.882 88.701C794.107 89.5888 792.006 90.0327 789.579 90.0327ZM814.166 73.733V89.5H806.602V53.1364H813.953V67.0391H814.273C814.888 65.4292 815.883 64.1686 817.256 63.2571C818.629 62.3338 820.351 61.8722 822.423 61.8722C824.317 61.8722 825.968 62.2865 827.377 63.1151C828.797 63.9318 829.898 65.1096 830.679 66.6484C831.472 68.1754 831.863 70.0043 831.851 72.1349V89.5H824.287V73.4844C824.299 71.8035 823.873 70.4955 823.009 69.5604C822.156 68.6252 820.961 68.1577 819.422 68.1577C818.392 68.1577 817.481 68.3767 816.688 68.8146C815.906 69.2526 815.291 69.8918 814.841 70.7322C814.403 71.5608 814.178 72.5611 814.166 73.733Z" fill="white"/>
<path d="M620.534 134.591V119.591H622.153V121.324H622.352C622.475 121.134 622.646 120.893 622.864 120.599C623.086 120.301 623.403 120.036 623.815 119.804C624.232 119.567 624.795 119.449 625.506 119.449C626.424 119.449 627.234 119.679 627.935 120.138C628.635 120.597 629.182 121.248 629.575 122.091C629.968 122.934 630.165 123.928 630.165 125.074C630.165 126.229 629.968 127.231 629.575 128.078C629.182 128.921 628.638 129.574 627.942 130.038C627.246 130.498 626.443 130.727 625.534 130.727C624.833 130.727 624.272 130.611 623.851 130.379C623.429 130.143 623.105 129.875 622.878 129.577C622.651 129.274 622.475 129.023 622.352 128.824H622.21V134.591H620.534ZM622.182 125.045C622.182 125.869 622.303 126.596 622.544 127.226C622.786 127.851 623.138 128.341 623.602 128.696C624.066 129.046 624.634 129.222 625.307 129.222C626.008 129.222 626.592 129.037 627.061 128.668C627.535 128.294 627.89 127.792 628.126 127.162C628.368 126.527 628.489 125.822 628.489 125.045C628.489 124.278 628.37 123.587 628.134 122.972C627.902 122.351 627.549 121.861 627.075 121.501C626.607 121.137 626.017 120.955 625.307 120.955C624.625 120.955 624.052 121.127 623.588 121.473C623.124 121.814 622.774 122.292 622.537 122.908C622.3 123.518 622.182 124.231 622.182 125.045ZM637.153 130.727C636.169 130.727 635.304 130.493 634.561 130.024C633.822 129.555 633.245 128.9 632.828 128.057C632.416 127.214 632.21 126.229 632.21 125.102C632.21 123.966 632.416 122.974 632.828 122.126C633.245 121.279 633.822 120.621 634.561 120.152C635.304 119.683 636.169 119.449 637.153 119.449C638.138 119.449 639 119.683 639.739 120.152C640.482 120.621 641.06 121.279 641.472 122.126C641.888 122.974 642.097 123.966 642.097 125.102C642.097 126.229 641.888 127.214 641.472 128.057C641.06 128.9 640.482 129.555 639.739 130.024C639 130.493 638.138 130.727 637.153 130.727ZM637.153 129.222C637.902 129.222 638.517 129.03 639 128.646C639.483 128.263 639.84 127.759 640.072 127.134C640.304 126.509 640.42 125.831 640.42 125.102C640.42 124.373 640.304 123.694 640.072 123.064C639.84 122.434 639.483 121.925 639 121.537C638.517 121.149 637.902 120.955 637.153 120.955C636.405 120.955 635.79 121.149 635.307 121.537C634.824 121.925 634.466 122.434 634.234 123.064C634.002 123.694 633.886 124.373 633.886 125.102C633.886 125.831 634.002 126.509 634.234 127.134C634.466 127.759 634.824 128.263 635.307 128.646C635.79 129.03 636.405 129.222 637.153 129.222ZM646.331 115.955V130.5H644.655V115.955H646.331ZM649.401 130.5V119.591H651.077V130.5H649.401ZM650.254 117.773C649.927 117.773 649.645 117.661 649.408 117.439C649.176 117.216 649.06 116.949 649.06 116.636C649.06 116.324 649.176 116.056 649.408 115.834C649.645 115.611 649.927 115.5 650.254 115.5C650.58 115.5 650.86 115.611 651.092 115.834C651.328 116.056 651.447 116.324 651.447 116.636C651.447 116.949 651.328 117.216 651.092 117.439C650.86 117.661 650.58 117.773 650.254 117.773ZM658.892 119.591V121.011H653.238V119.591H658.892ZM654.886 116.977H656.562V127.375C656.562 127.848 656.631 128.204 656.768 128.44C656.91 128.672 657.09 128.829 657.308 128.909C657.53 128.985 657.765 129.023 658.011 129.023C658.196 129.023 658.347 129.013 658.466 128.994C658.584 128.971 658.679 128.952 658.75 128.938L659.091 130.443C658.977 130.486 658.818 130.528 658.615 130.571C658.411 130.618 658.153 130.642 657.841 130.642C657.367 130.642 656.903 130.54 656.449 130.337C655.999 130.133 655.625 129.823 655.326 129.406C655.033 128.99 654.886 128.464 654.886 127.83V116.977ZM661.413 130.5V119.591H663.089V130.5H661.413ZM661.498 118.114L663.231 114.818H665.191L662.975 118.114H661.498ZM670.591 130.727C669.568 130.727 668.688 130.486 667.949 130.003C667.21 129.52 666.642 128.855 666.244 128.007C665.847 127.16 665.648 126.191 665.648 125.102C665.648 123.994 665.851 123.017 666.259 122.169C666.67 121.317 667.243 120.652 667.977 120.173C668.716 119.69 669.578 119.449 670.562 119.449C671.33 119.449 672.021 119.591 672.636 119.875C673.252 120.159 673.756 120.557 674.149 121.068C674.542 121.58 674.786 122.176 674.881 122.858H673.205C673.077 122.361 672.793 121.92 672.352 121.537C671.917 121.149 671.33 120.955 670.591 120.955C669.938 120.955 669.365 121.125 668.872 121.466C668.384 121.802 668.003 122.278 667.729 122.893C667.459 123.504 667.324 124.222 667.324 125.045C667.324 125.888 667.456 126.622 667.722 127.247C667.991 127.872 668.37 128.357 668.858 128.703C669.35 129.049 669.928 129.222 670.591 129.222C671.027 129.222 671.422 129.146 671.777 128.994C672.132 128.843 672.433 128.625 672.679 128.341C672.925 128.057 673.1 127.716 673.205 127.318H674.881C674.786 127.962 674.552 128.542 674.178 129.058C673.808 129.57 673.318 129.977 672.707 130.28C672.101 130.578 671.396 130.727 670.591 130.727ZM680.541 130.756C679.85 130.756 679.223 130.625 678.659 130.365C678.096 130.1 677.648 129.719 677.317 129.222C676.985 128.72 676.82 128.114 676.82 127.403C676.82 126.778 676.943 126.272 677.189 125.884C677.435 125.491 677.764 125.183 678.176 124.96C678.588 124.738 679.043 124.572 679.54 124.463C680.042 124.349 680.546 124.259 681.053 124.193C681.715 124.108 682.253 124.044 682.665 124.001C683.081 123.954 683.384 123.876 683.574 123.767C683.768 123.658 683.865 123.469 683.865 123.199V123.142C683.865 122.441 683.673 121.897 683.29 121.509C682.911 121.12 682.336 120.926 681.564 120.926C680.764 120.926 680.136 121.101 679.682 121.452C679.227 121.802 678.908 122.176 678.723 122.574L677.132 122.006C677.416 121.343 677.795 120.827 678.268 120.457C678.747 120.083 679.268 119.823 679.831 119.676C680.399 119.525 680.958 119.449 681.507 119.449C681.857 119.449 682.26 119.491 682.714 119.577C683.174 119.657 683.616 119.825 684.043 120.081C684.473 120.337 684.831 120.723 685.115 121.239C685.399 121.755 685.541 122.446 685.541 123.312V130.5H683.865V129.023H683.78C683.666 129.259 683.477 129.513 683.212 129.783C682.946 130.053 682.594 130.282 682.153 130.472C681.713 130.661 681.176 130.756 680.541 130.756ZM680.797 129.25C681.46 129.25 682.018 129.12 682.473 128.859C682.932 128.599 683.278 128.263 683.51 127.851C683.747 127.439 683.865 127.006 683.865 126.551V125.017C683.794 125.102 683.638 125.18 683.396 125.251C683.16 125.318 682.885 125.377 682.572 125.429C682.265 125.476 681.964 125.519 681.67 125.557C681.382 125.59 681.147 125.618 680.967 125.642C680.532 125.699 680.125 125.791 679.746 125.919C679.372 126.042 679.069 126.229 678.837 126.48C678.609 126.726 678.496 127.062 678.496 127.489C678.496 128.071 678.711 128.511 679.142 128.81C679.578 129.103 680.129 129.25 680.797 129.25ZM698.799 130.727C697.748 130.727 696.842 130.495 696.079 130.031C695.322 129.562 694.737 128.909 694.325 128.071C693.918 127.228 693.714 126.248 693.714 125.131C693.714 124.013 693.918 123.028 694.325 122.176C694.737 121.319 695.31 120.652 696.044 120.173C696.782 119.69 697.644 119.449 698.629 119.449C699.197 119.449 699.758 119.544 700.312 119.733C700.866 119.922 701.37 120.23 701.825 120.656C702.279 121.078 702.642 121.636 702.912 122.332C703.181 123.028 703.316 123.885 703.316 124.903V125.614H694.907V124.165H701.612C701.612 123.549 701.489 123 701.243 122.517C701.001 122.034 700.655 121.653 700.206 121.374C699.761 121.094 699.235 120.955 698.629 120.955C697.961 120.955 697.384 121.12 696.896 121.452C696.413 121.778 696.041 122.205 695.781 122.73C695.52 123.256 695.39 123.819 695.39 124.42V125.386C695.39 126.21 695.532 126.909 695.816 127.482C696.105 128.05 696.505 128.483 697.017 128.781C697.528 129.075 698.122 129.222 698.799 129.222C699.24 129.222 699.637 129.16 699.993 129.037C700.352 128.909 700.663 128.72 700.923 128.469C701.183 128.213 701.385 127.896 701.527 127.517L703.146 127.972C702.975 128.521 702.689 129.004 702.287 129.42C701.884 129.832 701.387 130.154 700.795 130.386C700.203 130.614 699.538 130.727 698.799 130.727ZM711.491 134.591V119.591H713.11V121.324H713.309C713.432 121.134 713.603 120.893 713.821 120.599C714.043 120.301 714.36 120.036 714.772 119.804C715.189 119.567 715.752 119.449 716.463 119.449C717.381 119.449 718.191 119.679 718.892 120.138C719.592 120.597 720.139 121.248 720.532 122.091C720.925 122.934 721.122 123.928 721.122 125.074C721.122 126.229 720.925 127.231 720.532 128.078C720.139 128.921 719.595 129.574 718.899 130.038C718.203 130.498 717.4 130.727 716.491 130.727C715.79 130.727 715.229 130.611 714.808 130.379C714.386 130.143 714.062 129.875 713.835 129.577C713.608 129.274 713.432 129.023 713.309 128.824H713.167V134.591H711.491ZM713.139 125.045C713.139 125.869 713.26 126.596 713.501 127.226C713.743 127.851 714.095 128.341 714.559 128.696C715.023 129.046 715.592 129.222 716.264 129.222C716.965 129.222 717.549 129.037 718.018 128.668C718.492 128.294 718.847 127.792 719.083 127.162C719.325 126.527 719.446 125.822 719.446 125.045C719.446 124.278 719.327 123.587 719.091 122.972C718.859 122.351 718.506 121.861 718.032 121.501C717.564 121.137 716.974 120.955 716.264 120.955C715.582 120.955 715.009 121.127 714.545 121.473C714.081 121.814 713.731 122.292 713.494 122.908C713.257 123.518 713.139 124.231 713.139 125.045ZM723.679 130.5V119.591H725.298V121.239H725.412C725.61 120.699 725.97 120.261 726.491 119.925C727.012 119.589 727.599 119.42 728.252 119.42C728.376 119.42 728.529 119.423 728.714 119.428C728.899 119.432 729.038 119.439 729.133 119.449V121.153C729.076 121.139 728.946 121.118 728.743 121.089C728.544 121.056 728.333 121.04 728.11 121.04C727.58 121.04 727.107 121.151 726.69 121.374C726.278 121.591 725.951 121.894 725.71 122.283C725.473 122.666 725.355 123.104 725.355 123.597V130.5H723.679ZM731.12 130.5V119.591H732.796V130.5H731.12ZM731.972 117.773C731.646 117.773 731.364 117.661 731.127 117.439C730.895 117.216 730.779 116.949 730.779 116.636C730.779 116.324 730.895 116.056 731.127 115.834C731.364 115.611 731.646 115.5 731.972 115.5C732.299 115.5 732.578 115.611 732.81 115.834C733.047 116.056 733.165 116.324 733.165 116.636C733.165 116.949 733.047 117.216 732.81 117.439C732.578 117.661 732.299 117.773 731.972 117.773ZM744.787 119.591L740.752 130.5H739.048L735.014 119.591H736.832L739.843 128.284H739.957L742.968 119.591H744.787ZM749.877 130.756C749.186 130.756 748.558 130.625 747.995 130.365C747.432 130.1 746.984 129.719 746.653 129.222C746.321 128.72 746.156 128.114 746.156 127.403C746.156 126.778 746.279 126.272 746.525 125.884C746.771 125.491 747.1 125.183 747.512 124.96C747.924 124.738 748.379 124.572 748.876 124.463C749.378 124.349 749.882 124.259 750.388 124.193C751.051 124.108 751.589 124.044 752.001 124.001C752.417 123.954 752.72 123.876 752.91 123.767C753.104 123.658 753.201 123.469 753.201 123.199V123.142C753.201 122.441 753.009 121.897 752.626 121.509C752.247 121.12 751.672 120.926 750.9 120.926C750.1 120.926 749.472 121.101 749.018 121.452C748.563 121.802 748.244 122.176 748.059 122.574L746.468 122.006C746.752 121.343 747.131 120.827 747.604 120.457C748.083 120.083 748.603 119.823 749.167 119.676C749.735 119.525 750.294 119.449 750.843 119.449C751.193 119.449 751.596 119.491 752.05 119.577C752.51 119.657 752.952 119.825 753.379 120.081C753.809 120.337 754.167 120.723 754.451 121.239C754.735 121.755 754.877 122.446 754.877 123.312V130.5H753.201V129.023H753.116C753.002 129.259 752.813 129.513 752.548 129.783C752.282 130.053 751.93 130.282 751.489 130.472C751.049 130.661 750.512 130.756 749.877 130.756ZM750.133 129.25C750.796 129.25 751.354 129.12 751.809 128.859C752.268 128.599 752.614 128.263 752.846 127.851C753.083 127.439 753.201 127.006 753.201 126.551V125.017C753.13 125.102 752.974 125.18 752.732 125.251C752.496 125.318 752.221 125.377 751.908 125.429C751.601 125.476 751.3 125.519 751.006 125.557C750.718 125.59 750.483 125.618 750.303 125.642C749.868 125.699 749.46 125.791 749.082 125.919C748.708 126.042 748.405 126.229 748.173 126.48C747.945 126.726 747.832 127.062 747.832 127.489C747.832 128.071 748.047 128.511 748.478 128.81C748.914 129.103 749.465 129.25 750.133 129.25ZM762.368 130.727C761.346 130.727 760.465 130.486 759.726 130.003C758.988 129.52 758.419 128.855 758.022 128.007C757.624 127.16 757.425 126.191 757.425 125.102C757.425 123.994 757.629 123.017 758.036 122.169C758.448 121.317 759.021 120.652 759.755 120.173C760.493 119.69 761.355 119.449 762.34 119.449C763.107 119.449 763.798 119.591 764.414 119.875C765.029 120.159 765.533 120.557 765.926 121.068C766.319 121.58 766.563 122.176 766.658 122.858H764.982C764.854 122.361 764.57 121.92 764.13 121.537C763.694 121.149 763.107 120.955 762.368 120.955C761.715 120.955 761.142 121.125 760.65 121.466C760.162 121.802 759.781 122.278 759.506 122.893C759.236 123.504 759.101 124.222 759.101 125.045C759.101 125.888 759.234 126.622 759.499 127.247C759.769 127.872 760.148 128.357 760.635 128.703C761.128 129.049 761.705 129.222 762.368 129.222C762.804 129.222 763.199 129.146 763.554 128.994C763.909 128.843 764.21 128.625 764.456 128.341C764.703 128.057 764.878 127.716 764.982 127.318H766.658C766.563 127.962 766.329 128.542 765.955 129.058C765.586 129.57 765.096 129.977 764.485 130.28C763.879 130.578 763.173 130.727 762.368 130.727ZM769.108 130.5V119.591H770.784V130.5H769.108ZM769.961 117.773C769.634 117.773 769.352 117.661 769.115 117.439C768.883 117.216 768.767 116.949 768.767 116.636C768.767 116.324 768.883 116.056 769.115 115.834C769.352 115.611 769.634 115.5 769.961 115.5C770.287 115.5 770.567 115.611 770.799 115.834C771.035 116.056 771.154 116.324 771.154 116.636C771.154 116.949 771.035 117.216 770.799 117.439C770.567 117.661 770.287 117.773 769.961 117.773ZM777.974 130.727C777.065 130.727 776.262 130.498 775.566 130.038C774.87 129.574 774.326 128.921 773.933 128.078C773.54 127.231 773.343 126.229 773.343 125.074C773.343 123.928 773.54 122.934 773.933 122.091C774.326 121.248 774.872 120.597 775.573 120.138C776.274 119.679 777.084 119.449 778.002 119.449C778.712 119.449 779.273 119.567 779.685 119.804C780.102 120.036 780.419 120.301 780.637 120.599C780.86 120.893 781.032 121.134 781.156 121.324H781.298V115.955H782.974V130.5H781.354V128.824H781.156C781.032 129.023 780.857 129.274 780.63 129.577C780.403 129.875 780.078 130.143 779.657 130.379C779.236 130.611 778.674 130.727 777.974 130.727ZM778.201 129.222C778.873 129.222 779.442 129.046 779.906 128.696C780.37 128.341 780.722 127.851 780.964 127.226C781.205 126.596 781.326 125.869 781.326 125.045C781.326 124.231 781.208 123.518 780.971 122.908C780.734 122.292 780.384 121.814 779.92 121.473C779.456 121.127 778.883 120.955 778.201 120.955C777.491 120.955 776.899 121.137 776.425 121.501C775.957 121.861 775.604 122.351 775.367 122.972C775.135 123.587 775.019 124.278 775.019 125.045C775.019 125.822 775.138 126.527 775.374 127.162C775.616 127.792 775.971 128.294 776.44 128.668C776.913 129.037 777.5 129.222 778.201 129.222ZM789.487 130.756C788.795 130.756 788.168 130.625 787.604 130.365C787.041 130.1 786.594 129.719 786.262 129.222C785.931 128.72 785.765 128.114 785.765 127.403C785.765 126.778 785.888 126.272 786.134 125.884C786.38 125.491 786.71 125.183 787.121 124.96C787.533 124.738 787.988 124.572 788.485 124.463C788.987 124.349 789.491 124.259 789.998 124.193C790.661 124.108 791.198 124.044 791.61 124.001C792.027 123.954 792.33 123.876 792.519 123.767C792.713 123.658 792.81 123.469 792.81 123.199V123.142C792.81 122.441 792.619 121.897 792.235 121.509C791.856 121.12 791.281 120.926 790.509 120.926C789.709 120.926 789.082 121.101 788.627 121.452C788.173 121.802 787.853 122.176 787.668 122.574L786.077 122.006C786.362 121.343 786.74 120.827 787.214 120.457C787.692 120.083 788.213 119.823 788.776 119.676C789.344 119.525 789.903 119.449 790.452 119.449C790.803 119.449 791.205 119.491 791.66 119.577C792.119 119.657 792.562 119.825 792.988 120.081C793.419 120.337 793.776 120.723 794.06 121.239C794.344 121.755 794.487 122.446 794.487 123.312V130.5H792.81V129.023H792.725C792.612 129.259 792.422 129.513 792.157 129.783C791.892 130.053 791.539 130.282 791.099 130.472C790.658 130.661 790.121 130.756 789.487 130.756ZM789.742 129.25C790.405 129.25 790.964 129.12 791.418 128.859C791.878 128.599 792.223 128.263 792.455 127.851C792.692 127.439 792.81 127.006 792.81 126.551V125.017C792.739 125.102 792.583 125.18 792.342 125.251C792.105 125.318 791.83 125.377 791.518 125.429C791.21 125.476 790.909 125.519 790.616 125.557C790.327 125.59 790.093 125.618 789.913 125.642C789.477 125.699 789.07 125.791 788.691 125.919C788.317 126.042 788.014 126.229 787.782 126.48C787.555 126.726 787.441 127.062 787.441 127.489C787.441 128.071 787.656 128.511 788.087 128.81C788.523 129.103 789.075 129.25 789.742 129.25ZM801.665 130.727C800.756 130.727 799.953 130.498 799.257 130.038C798.561 129.574 798.017 128.921 797.624 128.078C797.231 127.231 797.034 126.229 797.034 125.074C797.034 123.928 797.231 122.934 797.624 122.091C798.017 121.248 798.564 120.597 799.265 120.138C799.965 119.679 800.775 119.449 801.694 119.449C802.404 119.449 802.965 119.567 803.377 119.804C803.793 120.036 804.111 120.301 804.328 120.599C804.551 120.893 804.724 121.134 804.847 121.324H804.989V115.955H806.665V130.5H805.046V128.824H804.847C804.724 129.023 804.549 129.274 804.321 129.577C804.094 129.875 803.77 130.143 803.348 130.379C802.927 130.611 802.366 130.727 801.665 130.727ZM801.892 129.222C802.565 129.222 803.133 129.046 803.597 128.696C804.061 128.341 804.414 127.851 804.655 127.226C804.897 126.596 805.017 125.869 805.017 125.045C805.017 124.231 804.899 123.518 804.662 122.908C804.426 122.292 804.075 121.814 803.611 121.473C803.147 121.127 802.574 120.955 801.892 120.955C801.182 120.955 800.59 121.137 800.117 121.501C799.648 121.861 799.295 122.351 799.059 122.972C798.827 123.587 798.711 124.278 798.711 125.045C798.711 125.822 798.829 126.527 799.066 127.162C799.307 127.792 799.662 128.294 800.131 128.668C800.605 129.037 801.192 129.222 801.892 129.222ZM814.542 130.727C813.49 130.727 812.584 130.495 811.821 130.031C811.064 129.562 810.479 128.909 810.067 128.071C809.66 127.228 809.456 126.248 809.456 125.131C809.456 124.013 809.66 123.028 810.067 122.176C810.479 121.319 811.052 120.652 811.786 120.173C812.525 119.69 813.386 119.449 814.371 119.449C814.939 119.449 815.5 119.544 816.054 119.733C816.608 119.922 817.113 120.23 817.567 120.656C818.022 121.078 818.384 121.636 818.654 122.332C818.924 123.028 819.059 123.885 819.059 124.903V125.614H810.65V124.165H817.354C817.354 123.549 817.231 123 816.985 122.517C816.743 122.034 816.398 121.653 815.948 121.374C815.503 121.094 814.977 120.955 814.371 120.955C813.703 120.955 813.126 121.12 812.638 121.452C812.155 121.778 811.783 122.205 811.523 122.73C811.263 123.256 811.132 123.819 811.132 124.42V125.386C811.132 126.21 811.275 126.909 811.559 127.482C811.847 128.05 812.248 128.483 812.759 128.781C813.27 129.075 813.864 129.222 814.542 129.222C814.982 129.222 815.38 129.16 815.735 129.037C816.095 128.909 816.405 128.72 816.665 128.469C816.926 128.213 817.127 127.896 817.269 127.517L818.888 127.972C818.718 128.521 818.431 129.004 818.029 129.42C817.626 129.832 817.129 130.154 816.537 130.386C815.945 130.614 815.28 130.727 814.542 130.727Z" fill="white"/>
</svg>
